# Blender 3.4.1
# www.blender.org
o Text
v -0.087345 8.645599 -0.367992
v -0.270345 8.880599 -0.367992
v -0.388345 8.880599 -0.367992
v -0.135345 8.559599 -0.367992
v -0.135345 8.198599 -0.367992
v -0.037345 8.198599 -0.367992
v -0.037345 8.558599 -0.367992
v 0.215655 8.880599 -0.367992
v 0.097655 8.880599 -0.367992
vn -0.0000 -0.0000 1.0000
vt 0.000000 0.000000
vt 0.125000 0.000000
vt 0.250000 0.000000
vt 0.375000 0.000000
vt 0.500000 0.000000
vt 0.625000 0.000000
vt 0.750000 0.000000
vt 0.875000 0.000000
vt 1.000000 0.000000
s 0
f 4/4/1 2/2/1 3/3/1
f 4/4/1 1/1/1 2/2/1
f 1/1/1 8/8/1 9/9/1
f 1/1/1 7/7/1 8/8/1
f 4/4/1 7/7/1 1/1/1
f 5/5/1 7/7/1 4/4/1
f 5/5/1 6/6/1 7/7/1
o Text.001
v 8.656446 0.858209 -0.005032
v 8.538446 0.858209 -0.005032
v 8.325447 0.598209 -0.005032
v 8.111446 0.858209 -0.005032
v 7.992447 0.858209 -0.005032
v 8.265447 0.529209 -0.005032
v 7.971447 0.176209 -0.005032
v 8.090446 0.176209 -0.005032
v 8.325447 0.458209 -0.005032
v 8.557446 0.176209 -0.005032
v 8.675447 0.176209 -0.005032
v 8.384447 0.529209 -0.005032
vn -0.0000 -0.0000 1.0000
vt 0.000000 0.000000
vt 0.090909 0.000000
vt 0.181818 0.000000
vt 0.272727 0.000000
vt 0.363636 0.000000
vt 0.454545 0.000000
vt 0.545455 0.000000
vt 0.636364 0.000000
vt 0.727273 0.000000
vt 0.818182 0.000000
vt 0.909091 0.000000
vt 1.000000 0.000000
s 0
f 15/15/2 13/13/2 14/14/2
f 15/15/2 12/12/2 13/13/2
f 12/12/2 10/10/2 11/11/2
f 12/12/2 21/21/2 10/10/2
f 15/15/2 21/21/2 12/12/2
f 16/16/2 21/21/2 15/15/2
f 16/16/2 18/18/2 21/21/2
f 18/18/2 20/20/2 21/21/2
f 16/16/2 17/17/2 18/18/2
f 19/19/2 20/20/2 18/18/2
o Text.002
v -1.106578 0.760758 7.954088
v -1.540578 0.166758 7.954088
v -0.925578 0.166758 7.954088
v -0.925578 0.254758 7.954088
v -1.359578 0.254758 7.954088
v -0.925578 0.848758 7.954088
v -1.513578 0.848758 7.954088
v -1.513578 0.760758 7.954088
vn -0.0000 -0.0000 1.0000
vt 0.000000 0.000000
vt 0.142857 0.000000
vt 0.285714 0.000000
vt 0.428571 0.000000
vt 0.571429 0.000000
vt 0.714286 0.000000
vt 0.857143 0.000000
vt 1.000000 0.000000
s 0
f 29/29/3 27/27/3 28/28/3
f 29/29/3 22/22/3 27/27/3
f 22/22/3 26/26/3 27/27/3
f 23/23/3 26/26/3 22/22/3
f 23/23/3 25/25/3 26/26/3
f 23/23/3 24/24/3 25/25/3
o Cube
v -0.196526 -0.228430 0.232099
v -0.196526 0.228430 0.232099
v -0.196526 -0.228430 -0.232099
v -0.196526 0.228430 -0.232099
v 6.859144 -0.228430 0.232099
v 6.859144 0.228430 0.232099
v 6.859144 -0.228430 -0.232099
v 6.859144 0.228430 -0.232099
v 0.262092 -0.228430 -0.232099
v 0.262092 0.228430 -0.232099
v 0.262092 -0.228430 0.232099
v 0.262092 0.228430 0.232099
v -0.196526 7.228430 0.232099
v -0.196526 7.228430 -0.232099
v 0.262092 7.228430 0.232099
v 0.262092 7.228430 -0.232099
v -0.196526 -0.228430 6.732099
v -0.196526 0.228430 6.732099
v 0.262092 0.228430 6.732099
v 0.262092 -0.228430 6.732099
vn -1.0000 -0.0000 -0.0000
vn -0.0000 -0.0000 -1.0000
vn 1.0000 -0.0000 -0.0000
vn -0.0000 -1.0000 -0.0000
vn -0.0000 1.0000 -0.0000
vn -0.0000 -0.0000 1.0000
vt 0.125000 0.750000
vt 0.375000 0.000000
vt 0.625000 0.000000
vt 0.625000 1.000000
vt 0.125000 0.500000
vt 0.375000 0.250000
vt 0.625000 0.250000
vt 0.375000 0.750000
vt 0.625000 0.750000
vt 0.375000 0.500000
vt 0.625000 0.500000
vt 0.141250 0.500000
vt 0.375000 0.266250
vt 0.858750 0.500000
vt 0.625000 0.266250
vt 0.141250 0.750000
vt 0.375000 0.983750
vt 0.858750 0.750000
vt 0.625000 0.983750
vt 0.875000 0.750000
vt 0.625000 0.000000
vt 0.625000 1.000000
vt 0.875000 0.500000
vt 0.625000 0.250000
vt 0.858750 0.750000
vt 0.625000 0.983750
vt 0.858750 0.500000
vt 0.625000 0.266250
vt 0.125000 0.750000
vt 0.375000 1.000000
vt 0.375000 0.000000
vt 0.625000 0.000000
vt 0.625000 1.000000
vt 0.625000 0.983750
vt 0.141250 0.750000
vt 0.375000 0.983750
s 0
f 31/32/4 32/35/4 30/31/4
f 39/44/5 36/39/5 38/42/5
f 37/40/6 34/37/6 36/39/6
f 40/45/7 46/58/7 30/30/7
f 36/39/7 40/45/7 38/41/7
f 39/43/6 44/54/6 41/47/6
f 39/43/8 35/38/8 37/40/8
f 38/41/7 30/30/7 32/34/7
f 35/38/9 40/46/9 34/37/9
f 33/36/5 38/42/5 32/35/5
f 43/52/8 44/54/8 45/56/8
f 31/32/4 43/53/4 33/36/4
f 33/36/5 45/57/5 39/44/5
f 41/48/9 42/51/9 31/33/9
f 48/63/9 46/59/9 49/65/9
f 30/31/4 47/61/4 31/32/4
f 31/33/8 48/63/8 41/48/8
f 41/48/6 49/65/6 40/46/6
f 31/32/4 33/36/4 32/35/4
f 39/44/5 37/40/5 36/39/5
f 37/40/6 35/38/6 34/37/6
f 40/45/7 49/64/7 46/58/7
f 36/39/7 34/37/7 40/45/7
f 39/43/6 45/56/6 44/54/6
f 39/43/8 41/47/8 35/38/8
f 38/41/7 40/45/7 30/30/7
f 35/38/9 41/48/9 40/46/9
f 33/36/5 39/44/5 38/42/5
f 43/52/8 42/49/8 44/54/8
f 31/32/4 42/50/4 43/53/4
f 33/36/5 43/53/5 45/57/5
f 41/48/9 44/55/9 42/51/9
f 48/63/9 47/62/9 46/59/9
f 30/31/4 46/60/4 47/61/4
f 31/33/8 47/62/8 48/63/8
f 41/48/6 48/63/6 49/65/6
